<svg xmlns="http://www.w3.org/2000/svg" width="80" height="73" viewBox="0 0 80 73"><g><g><path fill="none" stroke="#36d176" stroke-miterlimit="20" stroke-width="2" d="M52.132 71.926v0H8.482a6.627 6.627 0 1 1 0-13.255H21.28v0"/></g><g><path fill="none" stroke="#36d176" stroke-miterlimit="20" stroke-width="2" d="M26.95 53.54v0l6.146-25.136c2.695-11.027 16.413-14.865 24.44-6.838l.694.695v0l.694.693c8.027 8.027 4.189 21.745-6.84 24.44L26.952 53.54v0z"/></g><g><path fill="none" stroke="#36d176" stroke-miterlimit="20" stroke-width="2" d="M26.95 53.54l18.506-18.506"/></g><g><path fill="none" stroke="#36d176" stroke-miterlimit="20" stroke-width="2" d="M52.018 32.315a3.845 3.845 0 1 1-7.69 0 3.845 3.845 0 0 1 7.69 0z"/></g><g><path fill="none" stroke="#36d176" stroke-miterlimit="20" stroke-width="2" d="M60.71 24.807v0l-5.027-5.027v0l3.052-3.412v0l5.387 5.386v0l-3.412 3.053v0z"/></g><g><path fill="none" stroke="#36d176" stroke-miterlimit="20" stroke-width="2" d="M68.662 26.386v0L54.103 11.828v0l8.84-9.88v0L78.54 17.548v0l-9.878 8.839v0z"/></g></g></svg>