<svg xmlns="http://www.w3.org/2000/svg" width="262" height="59" viewBox="0 0 262 59"><g><g><path fill="#e21c24" d="M46.797 58.415H.125V11.741C.125 5.479 5.22.388 11.483.388h35.314c6.26 0 11.355 5.091 11.355 11.353l-.001 20.058h-6.087V11.741a5.275 5.275 0 0 0-5.267-5.267H11.483a5.276 5.276 0 0 0-5.27 5.267v40.586h40.584a5.272 5.272 0 0 0 5.268-5.266v-1.908H13.37V23.22l15.8-12.88L44.87 22.916l-.002 8.883h-6.086v-5.962l-9.577-7.672-9.748 7.943v12.959h38.695v7.994c0 6.26-5.094 11.354-11.355 11.354z"/></g><g><path fill="#fff" d="M189 5.202a3.598 3.598 0 0 0-3.593 3.59 3.592 3.592 0 0 0 7.182 0A3.597 3.597 0 0 0 189 5.202z"/></g><g><path fill="#fff" d="M114.686 18.741a12.416 12.416 0 0 0-3.815-2.584 11.57 11.57 0 0 0-4.666-.963c-1.958 0-3.76.43-5.363 1.268a12.957 12.957 0 0 0-3.655 2.853 12.399 12.399 0 0 0-3.644-2.856c-1.625-.84-3.417-1.265-5.332-1.265-1.64 0-3.21.326-4.668.963a12.433 12.433 0 0 0-3.812 2.584 12.424 12.424 0 0 0-2.58 3.808 11.618 11.618 0 0 0-.966 4.67v18.362h6.058V27.22c0-.829.156-1.606.46-2.302a6.191 6.191 0 0 1 1.279-1.873 5.989 5.989 0 0 1 1.895-1.27c1.443-.618 3.226-.618 4.636-.004a6.458 6.458 0 0 1 1.908 1.28c.55.533.986 1.166 1.297 1.867.309.696.465 1.473.465 2.302v18.362h6.052V27.22c0-.829.156-1.606.463-2.302a6.162 6.162 0 0 1 1.28-1.873 5.984 5.984 0 0 1 1.894-1.27c1.444-.618 3.225-.62 4.632-.004a6.122 6.122 0 0 1 1.875 1.274 6.168 6.168 0 0 1 1.274 1.873c.31.696.464 1.473.464 2.302v18.362h6.114V27.22c0-1.633-.321-3.205-.966-4.67a12.292 12.292 0 0 0-2.578-3.808z"/></g><g><path fill="#fff" d="M148.699 19.71c1.405 1.381 2.518 3.041 3.33 4.933a15.326 15.326 0 0 1 1.22 6.06c0 2.128-.412 4.161-1.226 6.036-.806 1.871-1.922 3.522-3.324 4.904a16.074 16.074 0 0 1-4.925 3.292c-1.881.813-3.908 1.224-6.037 1.224-2.126 0-4.155-.41-6.007-1.224a16.112 16.112 0 0 1-4.894-3.292c-1.402-1.382-2.521-3.033-3.332-4.904-.806-1.875-1.217-3.908-1.217-6.036 0-2.132.41-4.169 1.217-6.06.808-1.892 1.93-3.552 3.332-4.934a16.16 16.16 0 0 1 4.894-3.296c3.71-1.615 8.288-1.619 12.044-.004a16.18 16.18 0 0 1 4.925 3.3zm-1.562 10.993a9.356 9.356 0 0 0-.73-3.65 9.291 9.291 0 0 0-2.013-3.009 9.283 9.283 0 0 0-3.006-2.012 9.294 9.294 0 0 0-3.651-.725 9.3 9.3 0 0 0-3.651.725 9.307 9.307 0 0 0-5.02 5.021 9.282 9.282 0 0 0-.725 3.65c0 1.283.242 2.514.725 3.653a9.063 9.063 0 0 0 2.009 2.974c.857.837 1.87 1.52 3.02 2.02 2.27.995 5.01.995 7.287 0a10.022 10.022 0 0 0 3.019-2.02 9.027 9.027 0 0 0 2.007-2.974c.48-1.144.729-2.37.729-3.653z"/></g><g><path fill="#fff" d="M176.828 16.186a5075.281 5075.281 0 0 0-4.54 10.656 1991.143 1991.143 0 0 1-4.049 9.477l-8.74-20.496h-6.62l12.794 29.758h5.136l12.797-29.758h-6.624z"/></g><g><path fill="#fff" d="M185.943 45.581h6.116V15.823h-6.116z"/></g><g><path fill="#fff" d="M225.685 24.644c-.805-1.893-1.924-3.553-3.327-4.935a16.166 16.166 0 0 0-4.924-3.3c-3.76-1.615-8.334-1.615-12.046.005a16.214 16.214 0 0 0-4.897 3.295 15.352 15.352 0 0 0-3.328 4.935c-.807 1.889-1.215 3.928-1.215 6.06V45.58h6.049V30.704c0-1.281.255-2.508.75-3.646a10.187 10.187 0 0 1 2.024-3.02 9.063 9.063 0 0 1 2.977-2.005c2.307-.978 5.107-.947 7.358 0a9.013 9.013 0 0 1 2.975 2.006 9.674 9.674 0 0 1 1.989 3.014 9.378 9.378 0 0 1 .727 3.65v14.878h6.109V30.704c0-2.132-.411-4.17-1.221-6.06z"/></g><g><path fill="#e21c24" d="M255.572 15.512v14.874c0 1.28-.252 2.506-.747 3.646a10.09 10.09 0 0 1-2.022 3.022 9.047 9.047 0 0 1-2.976 2.007c-2.307.977-5.114.952-7.363 0a8.945 8.945 0 0 1-2.97-2.007 9.661 9.661 0 0 1-1.991-3.012 9.387 9.387 0 0 1-.721-3.656V15.512h-6.116v14.874c0 2.129.412 4.172 1.223 6.067.806 1.888 1.925 3.55 3.327 4.927 1.395 1.383 3.053 2.489 4.924 3.3 1.876.81 3.91 1.219 6.034 1.219 2.129 0 4.158-.41 6.012-1.22a16.055 16.055 0 0 0 4.895-3.3c1.405-1.376 2.52-3.038 3.33-4.926.808-1.895 1.215-3.93 1.215-6.067V15.512z"/></g><g><path fill="#e21c24" d="M228.125 8.366c.029-.16.05-.325.05-.492 0-1.472-1.217-2.672-2.706-2.672-1.493 0-2.706 1.2-2.706 2.672 0 .167.019.332.05.492l1.605 6.182v-.008c.124.492.546.853 1.051.853.479 0 .884-.33 1.028-.787z"/></g></g></svg>