<svg xmlns="http://www.w3.org/2000/svg" width="235" height="53" viewBox="0 0 235 53"><g><g><path fill="#e21c24" d="M41.853 52.52H0V10.666C0 5.051 4.57.484 10.184.484h31.67c5.612 0 10.182 4.567 10.182 10.182v17.986h-5.46l.001-17.986a4.73 4.73 0 0 0-4.724-4.724H10.184a4.73 4.73 0 0 0-4.725 4.724v36.395h36.394a4.729 4.729 0 0 0 4.724-4.722v-1.71H11.88v-19.67L26.047 9.41l14.078 11.277-.002 7.967h-5.456v-5.345l-8.59-6.881-8.742 7.123v11.62h34.701v7.169c0 5.615-4.57 10.18-10.182 10.18z"/></g><g><path fill="#6d6e71" d="M169.373 4.801a3.227 3.227 0 0 0-3.221 3.221 3.22 3.22 0 0 0 6.44 0 3.228 3.228 0 0 0-3.219-3.22z"/></g><g><path fill="#6d6e71" d="M102.732 16.943a11.103 11.103 0 0 0-3.42-2.316 10.366 10.366 0 0 0-4.185-.864c-1.754 0-3.372.384-4.809 1.137a11.583 11.583 0 0 0-3.277 2.56 11.125 11.125 0 0 0-3.268-2.562c-1.457-.755-3.064-1.135-4.78-1.135-1.473 0-2.88.292-4.189.864a11.125 11.125 0 0 0-3.417 2.316 11.119 11.119 0 0 0-2.315 3.416 10.416 10.416 0 0 0-.866 4.186v16.467h5.432V24.545c0-.742.141-1.439.414-2.064a5.534 5.534 0 0 1 1.147-1.68 5.333 5.333 0 0 1 1.698-1.138c1.294-.554 2.894-.554 4.157-.003a5.808 5.808 0 0 1 1.713 1.146 5.378 5.378 0 0 1 1.162 1.675c.278.625.416 1.322.416 2.064v16.467h5.428V24.545a5.1 5.1 0 0 1 .415-2.064 5.519 5.519 0 0 1 1.148-1.68 5.344 5.344 0 0 1 1.698-1.138c1.296-.554 2.892-.557 4.155-.003a5.496 5.496 0 0 1 1.681 1.141 5.561 5.561 0 0 1 1.142 1.68c.28.625.415 1.322.415 2.064v16.467h5.484V24.545a10.32 10.32 0 0 0-.866-4.186 11.019 11.019 0 0 0-2.313-3.416z"/></g><g><path fill="#6d6e71" d="M133.234 17.81c1.259 1.24 2.258 2.73 2.986 4.426a13.753 13.753 0 0 1 1.094 5.435c0 1.907-.37 3.731-1.099 5.412a13.825 13.825 0 0 1-2.981 4.398 14.387 14.387 0 0 1-4.418 2.951 13.525 13.525 0 0 1-5.412 1.1c-1.907 0-3.726-.37-5.387-1.1a14.398 14.398 0 0 1-4.389-2.95 13.894 13.894 0 0 1-2.988-4.399 13.625 13.625 0 0 1-1.091-5.412c0-1.913.368-3.739 1.091-5.435a13.758 13.758 0 0 1 2.988-4.426 14.46 14.46 0 0 1 4.389-2.954c3.328-1.45 7.432-1.453 10.799-.004a14.508 14.508 0 0 1 4.418 2.958zm-1.401 9.861c0-1.152-.224-2.25-.653-3.274a8.348 8.348 0 0 0-4.502-4.503 8.325 8.325 0 0 0-3.274-.65 8.327 8.327 0 0 0-3.275.65 8.337 8.337 0 0 0-4.502 4.503 8.328 8.328 0 0 0-.649 3.274c0 1.15.216 2.252.649 3.274a8.138 8.138 0 0 0 1.802 2.668 8.947 8.947 0 0 0 2.709 1.811c2.035.893 4.492.893 6.534 0a8.962 8.962 0 0 0 2.707-1.81 8.09 8.09 0 0 0 1.801-2.669 8.425 8.425 0 0 0 .653-3.274z"/></g><g><path fill="#6d6e71" d="M158.459 14.652a3634.42 3634.42 0 0 0-4.071 9.556 1783.971 1783.971 0 0 1-3.631 8.497l-7.839-18.378h-5.937l11.475 26.686h4.605l11.476-26.686h-5.94z"/></g><g><path fill="#6d6e71" d="M166.633 41.013h5.483V14.327h-5.483z"/></g><g><path fill="#6d6e71" d="M202.27 22.237a13.713 13.713 0 0 0-2.983-4.426 14.463 14.463 0 0 0-4.416-2.958c-3.372-1.45-7.473-1.45-10.802.004a14.5 14.5 0 0 0-4.391 2.954 13.78 13.78 0 0 0-2.984 4.426 13.76 13.76 0 0 0-1.09 5.435v13.34h5.424v-13.34c0-1.15.23-2.25.674-3.27a9.125 9.125 0 0 1 1.814-2.708 8.129 8.129 0 0 1 2.67-1.8c2.067-.875 4.58-.848 6.598 0a8.1 8.1 0 0 1 2.668 1.8 8.693 8.693 0 0 1 1.783 2.703 8.403 8.403 0 0 1 .652 3.275v13.34h5.478v-13.34c0-1.913-.368-3.74-1.095-5.435z"/></g><g><path fill="#e21c24" d="M229.072 14.047v13.338a8.15 8.15 0 0 1-.67 3.27 9.058 9.058 0 0 1-1.812 2.71 8.148 8.148 0 0 1-2.67 1.8c-2.069.876-4.586.854-6.603 0a8.045 8.045 0 0 1-2.663-1.8 8.661 8.661 0 0 1-1.785-2.7 8.406 8.406 0 0 1-.647-3.28V14.047h-5.485v13.338c0 1.91.37 3.742 1.097 5.442.722 1.692 1.726 3.182 2.984 4.418a14.311 14.311 0 0 0 4.414 2.958c1.684.727 3.507 1.093 5.412 1.093 1.91 0 3.73-.366 5.391-1.093a14.41 14.41 0 0 0 4.391-2.958c1.26-1.236 2.26-2.726 2.986-4.418a13.784 13.784 0 0 0 1.09-5.442V14.047z"/></g><g><path fill="#e21c24" d="M204.459 7.64c.025-.144.045-.292.045-.441 0-1.321-1.091-2.397-2.426-2.397-1.34 0-2.428 1.076-2.428 2.397 0 .149.018.297.045.44l1.44 5.543v-.005c.111.44.489.766.943.766.429 0 .792-.298.921-.707z"/></g></g></svg>