<svg xmlns="http://www.w3.org/2000/svg" width="67" height="69" viewBox="0 0 67 69"><g><g><path fill="none" stroke="#231f20" stroke-miterlimit="20" stroke-width="2" d="M14.533 64.598v0H57.65v0V32.78v0h6.946v0L49.1 17.455v0L33.602 2.13v0L18.105 17.455v0L2.608 32.78v0h6.946v26.729"/></g><g><path fill="none" stroke="#231f20" stroke-miterlimit="20" stroke-width="2" d="M5.91 68.13l17.246-17.243"/></g><g><path fill="none" stroke="#231f20" stroke-miterlimit="20" stroke-width="2" d="M33.145 46.13a5.234 5.234 0 0 1 0-10.468"/></g><g><path fill="none" stroke="#231f20" stroke-miterlimit="20" stroke-width="2" d="M47.292 40.897c0 7.813-6.334 14.147-14.147 14.147-7.813 0-14.147-6.334-14.147-14.147 0-7.813 6.334-14.147 14.147-14.147 7.813 0 14.147 6.334 14.147 14.147z"/></g></g></svg>